Coordinates
version=1
nRows=10
nColumns=46
inDegrees=yes

Units are S.I. units (second, meters, Newtons, ...)
Angles are in degrees.

endheader
time	pelvis_tilt	pelvis_list	pelvis_rotation	pelvis_tx	pelvis_ty	pelvis_tz	bb_angle	bb_tx	bb_ty	bb_tz	hip_flexion_r	hip_adduction_r	hip_rotation_r	knee_angle_r	knee_angle_r_beta	ankle_angle_r	subtalar_angle_r	mtp_angle_r	crank_angle_r	hip_flexion_l	hip_adduction_l	hip_rotation_l	knee_angle_l	knee_angle_l_beta	ankle_angle_l	subtalar_angle_l	mtp_angle_l	crank_angle_l	lumbar_extension	lumbar_bending	lumbar_rotation	arm_flex_r	arm_add_r	arm_rot_r	elbow_flex_r	pro_sup_r	wrist_flex_r	wrist_dev_r	arm_flex_l	arm_add_l	arm_rot_l	elbow_flex_l	pro_sup_l	wrist_flex_l	wrist_dev_l
      2.50500000	    -18.11418835	      5.97170320	      3.03405495	      0.16059739	      1.16079952	     -0.23519392	      0.00000000	      0.50000000	      0.00000000	      0.25000000	     43.31376868	    -10.70569374	     -6.67792887	     37.24784732	      0.65009758	      2.77315583	      1.92761795	      0.00000000	      0.00000000	     93.88293232	     -3.74482288	     -0.19042051	    110.97196172	      1.93682611	    -10.15579336	     -1.51356817	      0.00000000	      0.00000000	    -62.39462480	     -4.36158842	     -5.69743913	     89.74773718	    -16.80576180	     31.75756594	     54.16725656	     24.28303202	      0.00000000	      0.00000000	     89.60848371	     -8.80037164	     28.00664530	     57.66839651	     29.94668661	      0.00000000	      0.00000000
      2.51000000	    -18.28898907	      5.92426717	      3.43092911	      0.16077326	      1.16152624	     -0.23478233	      0.00000000	      0.50000000	      0.00000000	      0.25000000	     43.41873927	    -11.05084738	     -7.19885824	     38.31842855	      0.66878274	      2.36862339	      1.74275644	      0.00000000	      0.00000000	     94.28153231	     -3.44858443	     -0.26145661	    110.24288966	      1.92410140	     -9.38242433	     -1.38110806	      0.00000000	      0.00000000	    -62.47639565	     -4.33576300	     -5.83611165	     89.74909405	    -17.07278426	     31.65173996	     54.16967271	     24.29416766	      0.00000000	      0.00000000	     89.62459295	     -8.55765521	     27.88560814	     57.97209544	     29.96695098	      0.00000000	      0.00000000
      2.51500000	    -18.72126767	      6.10341572	      3.86499824	      0.16046278	      1.16171668	     -0.23470838	      0.00000000	      0.50000000	      0.00000000	      0.25000000	     44.00374627	    -11.70084607	     -7.66605607	     39.66249184	      0.69224107	      2.15724354	      1.83400125	      0.00000000	      0.00000000	     94.78691068	     -2.99458922	     -0.52988267	    109.29503718	      1.90755825	     -8.48991810	     -0.85302059	      0.00000000	      0.00000000	    -62.39133463	     -4.42481092	     -6.17835153	     89.74467295	    -17.59487535	     31.48937436	     54.49451811	     24.38774577	      0.00000000	      0.00000000	     89.63250493	     -8.20432294	     27.55080925	     58.52185505	     29.97642274	      0.00000000	      0.00000000
      2.52000000	    -18.94447746	      5.99261577	      4.25034198	      0.16027742	      1.16236700	     -0.23449997	      0.00000000	      0.50000000	      0.00000000	      0.25000000	     44.40477517	    -12.02197337	     -8.17128662	     41.06264798	      0.71667841	      1.67490229	      1.44868305	      0.00000000	      0.00000000	     95.01119165	     -2.63715500	     -0.54823390	    108.31208369	      1.89040248	     -7.58508117	     -0.76193293	      0.00000000	      0.00000000	    -62.45677921	     -4.30057619	     -6.27967836	     89.74517573	    -17.89231556	     31.39160164	     54.67404661	     24.43573090	      0.00000000	      0.00000000	     89.64466768	     -8.05702298	     27.39337414	     58.89236138	     29.99926905	      0.00000000	      0.00000000
      2.52500000	    -19.27018722	      6.08717887	      4.62237103	      0.15987722	      1.16270613	     -0.23459182	      0.00000000	      0.50000000	      0.00000000	      0.25000000	     45.17687972	    -12.52411003	     -8.29748859	     42.83062223	      0.74753538	      1.10148782	      1.00408143	      0.00000000	      0.00000000	     95.16507773	     -2.08955405	     -0.64560731	    107.19245645	      1.87086130	     -6.41843611	     -0.27084348	      0.00000000	      0.00000000	    -62.50086895	     -4.30259047	     -6.56745408	     89.74192901	    -18.43963231	     31.29093944	     55.29892989	     24.59009841	      0.00000000	      0.00000000	     89.65437813	     -7.89218833	     27.06939645	     59.59183898	     30.02627128	      0.00000000	      0.00000000
      2.53000000	    -19.51028291	      5.94867374	      4.99848765	      0.15947577	      1.16317498	     -0.23445772	      0.00000000	      0.50000000	      0.00000000	      0.25000000	     45.89770508	    -12.74156284	     -8.36793980	     44.66328312	      0.77952135	      0.49307479	      0.18900299	      0.00000000	      0.00000000	     95.14839005	     -1.71103432	     -0.59535954	    105.98826889	      1.84984426	     -5.12980839	      0.29124432	      0.00000000	      0.00000000	    -62.65495204	     -4.09494779	     -6.62076698	     89.73819103	    -19.23514212	     31.44281637	     56.38176379	     24.90165143	      0.00000000	      0.00000000	     89.66572235	     -7.95442789	     26.87906309	     60.57599704	     29.95956610	      0.00000000	      0.00000000
      2.53500000	    -19.79941569	      5.89047570	      5.39920036	      0.15864269	      1.16367870	     -0.23436115	      0.00000000	      0.50000000	      0.00000000	      0.25000000	     46.81206669	    -13.10359554	     -8.48659496	     46.61834584	      0.81364363	     -0.34962670	     -0.60635709	      0.00000000	      0.00000000	     95.01690175	     -1.25272090	     -0.62943402	    104.56694722	      1.82503752	     -3.87900665	      0.71273586	      0.00000000	      0.00000000	    -62.70371809	     -3.93024654	     -6.82837897	     89.74002991	    -19.59108772	     31.32341727	     56.81644427	     25.01548545	      0.00000000	      0.00000000	     89.68271189	     -7.93625718	     26.70472004	     61.13883350	     29.94367683	      0.00000000	      0.00000000
      2.54000000	    -19.93304818	      5.51394554	      5.77685442	      0.15830502	      1.16437300	     -0.23412708	      0.00000000	      0.50000000	      0.00000000	      0.25000000	     47.52963513	    -13.04889931	     -8.44751400	     48.56161730	      0.84756011	     -1.33205800	     -1.74974702	      0.00000000	      0.00000000	     94.65253518	     -0.88786853	     -0.31493109	    103.14263730	      1.80017862	     -2.35747563	      1.40701084	      0.00000000	      0.00000000	    -62.95260316	     -3.53017717	     -6.76760417	     89.73915312	    -20.04932844	     31.18400600	     57.69340859	     25.24818463	      0.00000000	      0.00000000	     89.68965766	     -8.10259227	     26.46167172	     62.16134342	     29.86607728	      0.00000000	      0.00000000
      2.54500000	    -20.31827927	      5.42999485	      6.10283223	      0.15729152	      1.16425289	     -0.23455098	      0.00000000	      0.50000000	      0.00000000	      0.25000000	     48.78224269	    -13.43568753	     -8.52596276	     50.76415563	      0.88600166	     -2.25793309	     -2.57602412	      0.00000000	      0.00000000	     94.37925646	     -0.39331416	     -0.26366067	    101.52270139	      1.77190540	     -0.78982943	      1.95830959	      0.00000000	      0.00000000	    -62.89740099	     -3.35243014	     -6.97224878	     89.73884715	    -20.41688762	     30.95602218	     58.03705762	     26.54031804	      0.00000000	      0.00000000	     89.70090919	     -8.18396073	     26.26219894	     62.72344210	     30.66706700	      0.00000000	      0.00000000
      2.55000000	    -20.53334874	      5.22075247	      6.40212469	      0.15652099	      1.16442085	     -0.23465963	      0.00000000	      0.50000000	      0.00000000	      0.25000000	     49.87907943	    -13.60762040	     -8.43976127	     52.98637315	      0.92478667	     -3.39044827	     -3.45666316	      0.00000000	      0.00000000	     93.80979982	      0.00229089	     -0.07086252	     99.78661513	      1.74160498	      0.77392332	      2.60552321	      0.00000000	      0.00000000	    -63.02238457	     -3.08200884	     -7.04970785	     89.74272638	    -20.70896154	     30.76377941	     58.58359478	     26.62607497	      0.00000000	      0.00000000	     89.70872013	     -8.22075925	     26.00938228	     63.39841805	     30.63677173	      0.00000000	      0.00000000
